# xmcd
#
# Track frame offsets:
#	150
#	17035
#	33267
#	48280
#	69477
#	81300
#	92657
#	108360
#	125272
#	139125
#	151712
#	166530
#	177109
#	187832
#	197100
#	208260
#	222122
#	231784
#	243737
#	266420
#
# Disc length: 4440 seconds
#
# Revision: 0
# Processed by: cddbd v1.5.2PL0 Copyright (c) Steve Scherf et al.
# Submitted via: audiograbber 1.83.01
#
DISCID=07115614
DTITLE=Raul Seixas - UAH-BAP-LU-BAP-LAH-BÉIN-BUM/A PEDRA DO GÊNESIS
DYEAR=2003
DGENRE=Rock Nacional
TTITLE0=Abertura/Quando Acabar o Maluco Sou Eu
TTITLE1=Cowboy Fora da Lei
TTITLE2=Para Nóia II
TTITLE3=I Am (Gita)
TTITLE4=Cambalache
TTITLE5=Loba
TTITLE6=Canceriano Sem Lar (Clínica Tobias Blues)
TTITLE7=Gente
TTITLE8=Cantar
TTITLE9=A Pedra do Gênesis
TTITLE10=A Lei
TTITLE11=Check Up
TTITLE12=Fazendo o que o Diabo Gosta
TTITLE13=Cavalos Calados
TTITLE14=Não Quero Mais Andar na Contra-Mão
TTITLE15=I Don´t Really Need You Anymore
TTITLE16=Lua Bonita
TTITLE17=Senhora Dona Persona
TTITLE18=Areia na Ampulheta
TTITLE19=Data Track
EXTD=
EXTT0=
EXTT1=
EXTT2=
EXTT3=
EXTT4=
EXTT5=
EXTT6=
EXTT7=
EXTT8=
EXTT9=
EXTT10=
EXTT11=
EXTT12=
EXTT13=
EXTT14=
EXTT15=
EXTT16=
EXTT17=
EXTT18=
EXTT19=
PLAYORDER=
